<mxfile host="app.diagrams.net" agent="Mozilla/5.0 (Windows NT 10.0; Win64; x64) AppleWebKit/537.36 (KHTML, like Gecko) Chrome/135.0.0.0 Safari/537.36" version="26.2.6">
  <diagram id="R2lEEEUBdFMjLlhIrx00" name="Page-1">
    <mxGraphModel dx="1154" dy="692" grid="1" gridSize="10" guides="1" tooltips="1" connect="1" arrows="1" fold="1" page="1" pageScale="1" pageWidth="850" pageHeight="1100" math="0" shadow="0" extFonts="Permanent Marker^https://fonts.googleapis.com/css?family=Permanent+Marker">
      <root>
        <mxCell id="0" />
        <mxCell id="1" parent="0" />
        <mxCell id="F_yC6FuZW9_ntXyTirgm-1" value="Clinic" style="whiteSpace=wrap;html=1;align=center;fontFamily=Kahroba RG;fontSize=13;" parent="1" vertex="1">
          <mxGeometry x="160" y="200" width="100" height="40" as="geometry" />
        </mxCell>
        <mxCell id="F_yC6FuZW9_ntXyTirgm-3" value="Test" style="whiteSpace=wrap;html=1;align=center;fontFamily=Kahroba RG;fontSize=13;" parent="1" vertex="1">
          <mxGeometry x="470" y="360" width="100" height="40" as="geometry" />
        </mxCell>
        <mxCell id="F_yC6FuZW9_ntXyTirgm-5" value="Patient" style="whiteSpace=wrap;html=1;align=center;fontFamily=Kahroba RG;fontSize=13;" parent="1" vertex="1">
          <mxGeometry x="160" y="540" width="100" height="40" as="geometry" />
        </mxCell>
        <mxCell id="F_yC6FuZW9_ntXyTirgm-6" value="Doctor" style="whiteSpace=wrap;html=1;align=center;fontFamily=Kahroba RG;fontSize=13;" parent="1" vertex="1">
          <mxGeometry x="480" y="200" width="100" height="40" as="geometry" />
        </mxCell>
        <mxCell id="F_yC6FuZW9_ntXyTirgm-8" value="&lt;span&gt;name&amp;nbsp;&lt;/span&gt;" style="ellipse;whiteSpace=wrap;html=1;align=center;fontFamily=Kahroba RG;fontSize=13;" parent="1" vertex="1">
          <mxGeometry x="20" y="210" width="100" height="40" as="geometry" />
        </mxCell>
        <mxCell id="F_yC6FuZW9_ntXyTirgm-9" value="&lt;span&gt;total_rooms&amp;nbsp;&lt;/span&gt;" style="ellipse;whiteSpace=wrap;html=1;align=center;fontFamily=Kahroba RG;fontSize=13;" parent="1" vertex="1">
          <mxGeometry x="130" y="130" width="100" height="40" as="geometry" />
        </mxCell>
        <mxCell id="F_yC6FuZW9_ntXyTirgm-12" value="&lt;span&gt;first_name&lt;/span&gt;" style="ellipse;whiteSpace=wrap;html=1;align=center;fontFamily=Kahroba RG;fontSize=13;" parent="1" vertex="1">
          <mxGeometry x="650" y="60" width="100" height="40" as="geometry" />
        </mxCell>
        <mxCell id="F_yC6FuZW9_ntXyTirgm-13" value="&lt;span&gt;last_name&amp;nbsp;&lt;/span&gt;" style="ellipse;whiteSpace=wrap;html=1;align=center;fontFamily=Kahroba RG;fontSize=13;" parent="1" vertex="1">
          <mxGeometry x="720" y="120" width="100" height="40" as="geometry" />
        </mxCell>
        <mxCell id="F_yC6FuZW9_ntXyTirgm-16" value="&lt;span&gt;phone_number&amp;nbsp;&lt;/span&gt;" style="ellipse;whiteSpace=wrap;html=1;align=center;fontFamily=Kahroba RG;fontSize=13;" parent="1" vertex="1">
          <mxGeometry x="740" y="200" width="100" height="40" as="geometry" />
        </mxCell>
        <mxCell id="F_yC6FuZW9_ntXyTirgm-17" value="&lt;span&gt;office_address&amp;nbsp;&lt;/span&gt;" style="ellipse;whiteSpace=wrap;html=1;align=center;fontFamily=Kahroba RG;fontSize=13;" parent="1" vertex="1">
          <mxGeometry x="720" y="260" width="100" height="40" as="geometry" />
        </mxCell>
        <mxCell id="F_yC6FuZW9_ntXyTirgm-18" value="&lt;span&gt;specialization&lt;/span&gt;" style="ellipse;whiteSpace=wrap;html=1;align=center;fontFamily=Kahroba RG;fontSize=13;" parent="1" vertex="1">
          <mxGeometry x="630" y="310" width="100" height="40" as="geometry" />
        </mxCell>
        <mxCell id="F_yC6FuZW9_ntXyTirgm-20" value="&lt;span&gt;license_number&lt;/span&gt;" style="ellipse;whiteSpace=wrap;html=1;align=center;fontStyle=4;fontFamily=Kahroba RG;fontSize=13;" parent="1" vertex="1">
          <mxGeometry x="460" y="130" width="100" height="40" as="geometry" />
        </mxCell>
        <mxCell id="F_yC6FuZW9_ntXyTirgm-21" value="cl&lt;span style=&quot;color: light-dark(rgb(0, 0, 0), rgb(255, 255, 255)); background-color: transparent;&quot;&gt;inic_id&lt;/span&gt;" style="ellipse;whiteSpace=wrap;html=1;align=center;fontStyle=4;fontFamily=Kahroba RG;fontSize=13;" parent="1" vertex="1">
          <mxGeometry x="30" y="160" width="100" height="40" as="geometry" />
        </mxCell>
        <mxCell id="F_yC6FuZW9_ntXyTirgm-22" value="Works_in" style="shape=rhombus;perimeter=rhombusPerimeter;whiteSpace=wrap;html=1;align=center;fontFamily=Kahroba RG;fontSize=13;" parent="1" vertex="1">
          <mxGeometry x="310" y="190" width="120" height="60" as="geometry" />
        </mxCell>
        <mxCell id="F_yC6FuZW9_ntXyTirgm-24" value="" style="endArrow=none;html=1;rounded=0;exitX=1;exitY=0.5;exitDx=0;exitDy=0;fontFamily=Kahroba RG;fontSize=13;" parent="1" source="F_yC6FuZW9_ntXyTirgm-1" target="F_yC6FuZW9_ntXyTirgm-22" edge="1">
          <mxGeometry relative="1" as="geometry">
            <mxPoint x="340" y="320" as="sourcePoint" />
            <mxPoint x="500" y="320" as="targetPoint" />
          </mxGeometry>
        </mxCell>
        <mxCell id="F_yC6FuZW9_ntXyTirgm-25" value="1" style="resizable=0;html=1;whiteSpace=wrap;align=right;verticalAlign=bottom;fontFamily=Kahroba RG;fontSize=13;" parent="F_yC6FuZW9_ntXyTirgm-24" connectable="0" vertex="1">
          <mxGeometry x="1" relative="1" as="geometry" />
        </mxCell>
        <mxCell id="F_yC6FuZW9_ntXyTirgm-26" value="" style="endArrow=none;html=1;rounded=0;exitX=0;exitY=0.5;exitDx=0;exitDy=0;entryX=1;entryY=0.5;entryDx=0;entryDy=0;fontFamily=Kahroba RG;fontSize=13;" parent="1" source="F_yC6FuZW9_ntXyTirgm-6" target="F_yC6FuZW9_ntXyTirgm-22" edge="1">
          <mxGeometry relative="1" as="geometry">
            <mxPoint x="340" y="320" as="sourcePoint" />
            <mxPoint x="500" y="320" as="targetPoint" />
          </mxGeometry>
        </mxCell>
        <mxCell id="F_yC6FuZW9_ntXyTirgm-27" value="N" style="resizable=0;html=1;whiteSpace=wrap;align=right;verticalAlign=bottom;fontFamily=Kahroba RG;fontSize=13;" parent="F_yC6FuZW9_ntXyTirgm-26" connectable="0" vertex="1">
          <mxGeometry x="1" relative="1" as="geometry" />
        </mxCell>
        <mxCell id="F_yC6FuZW9_ntXyTirgm-28" value="start_date" style="ellipse;whiteSpace=wrap;html=1;align=center;fontFamily=Kahroba RG;fontSize=13;" parent="1" vertex="1">
          <mxGeometry x="320" y="120" width="100" height="40" as="geometry" />
        </mxCell>
        <mxCell id="F_yC6FuZW9_ntXyTirgm-29" value="" style="endArrow=none;html=1;rounded=0;exitX=0;exitY=1;exitDx=0;exitDy=0;entryX=0.607;entryY=0.008;entryDx=0;entryDy=0;entryPerimeter=0;fontFamily=Kahroba RG;fontSize=13;" parent="1" source="F_yC6FuZW9_ntXyTirgm-12" edge="1">
          <mxGeometry relative="1" as="geometry">
            <mxPoint x="450" y="230" as="sourcePoint" />
            <mxPoint x="660.7" y="120.32000000000005" as="targetPoint" />
          </mxGeometry>
        </mxCell>
        <mxCell id="F_yC6FuZW9_ntXyTirgm-30" value="" style="endArrow=none;html=1;rounded=0;exitX=0;exitY=0.5;exitDx=0;exitDy=0;entryX=1;entryY=0.5;entryDx=0;entryDy=0;fontFamily=Kahroba RG;fontSize=13;" parent="1" source="F_yC6FuZW9_ntXyTirgm-13" edge="1">
          <mxGeometry relative="1" as="geometry">
            <mxPoint x="675" y="104" as="sourcePoint" />
            <mxPoint x="700" y="140" as="targetPoint" />
          </mxGeometry>
        </mxCell>
        <mxCell id="F_yC6FuZW9_ntXyTirgm-31" value="" style="endArrow=none;html=1;rounded=0;exitX=0;exitY=1;exitDx=0;exitDy=0;entryX=1;entryY=0;entryDx=0;entryDy=0;fontFamily=Kahroba RG;fontSize=13;" parent="1" target="F_yC6FuZW9_ntXyTirgm-6" edge="1">
          <mxGeometry relative="1" as="geometry">
            <mxPoint x="614.6446609406728" y="154.14213562373095" as="sourcePoint" />
            <mxPoint x="710" y="150" as="targetPoint" />
          </mxGeometry>
        </mxCell>
        <mxCell id="F_yC6FuZW9_ntXyTirgm-32" value="" style="endArrow=none;html=1;rounded=0;exitX=0;exitY=0.5;exitDx=0;exitDy=0;entryX=1;entryY=0.5;entryDx=0;entryDy=0;fontFamily=Kahroba RG;fontSize=13;" parent="1" source="F_yC6FuZW9_ntXyTirgm-16" target="F_yC6FuZW9_ntXyTirgm-6" edge="1">
          <mxGeometry relative="1" as="geometry">
            <mxPoint x="625" y="164" as="sourcePoint" />
            <mxPoint x="590" y="210" as="targetPoint" />
          </mxGeometry>
        </mxCell>
        <mxCell id="F_yC6FuZW9_ntXyTirgm-33" value="" style="endArrow=none;html=1;rounded=0;exitX=0.041;exitY=0.268;exitDx=0;exitDy=0;entryX=1;entryY=1;entryDx=0;entryDy=0;exitPerimeter=0;fontFamily=Kahroba RG;fontSize=13;" parent="1" source="F_yC6FuZW9_ntXyTirgm-17" target="F_yC6FuZW9_ntXyTirgm-6" edge="1">
          <mxGeometry relative="1" as="geometry">
            <mxPoint x="750" y="230" as="sourcePoint" />
            <mxPoint x="590" y="230" as="targetPoint" />
          </mxGeometry>
        </mxCell>
        <mxCell id="F_yC6FuZW9_ntXyTirgm-34" value="" style="endArrow=none;html=1;rounded=0;exitX=0.222;exitY=0.078;exitDx=0;exitDy=0;entryX=0.75;entryY=1;entryDx=0;entryDy=0;exitPerimeter=0;fontFamily=Kahroba RG;fontSize=13;" parent="1" source="F_yC6FuZW9_ntXyTirgm-18" target="F_yC6FuZW9_ntXyTirgm-6" edge="1">
          <mxGeometry relative="1" as="geometry">
            <mxPoint x="734" y="281" as="sourcePoint" />
            <mxPoint x="590" y="250" as="targetPoint" />
          </mxGeometry>
        </mxCell>
        <mxCell id="F_yC6FuZW9_ntXyTirgm-35" value="" style="endArrow=none;html=1;rounded=0;exitX=0.602;exitY=0.975;exitDx=0;exitDy=0;exitPerimeter=0;entryX=0.5;entryY=0;entryDx=0;entryDy=0;fontFamily=Kahroba RG;fontSize=13;" parent="1" source="F_yC6FuZW9_ntXyTirgm-20" target="F_yC6FuZW9_ntXyTirgm-6" edge="1">
          <mxGeometry relative="1" as="geometry">
            <mxPoint x="450" y="230" as="sourcePoint" />
            <mxPoint x="610" y="230" as="targetPoint" />
          </mxGeometry>
        </mxCell>
        <mxCell id="F_yC6FuZW9_ntXyTirgm-36" value="" style="endArrow=none;html=1;rounded=0;exitX=0.5;exitY=1;exitDx=0;exitDy=0;entryX=0.5;entryY=0;entryDx=0;entryDy=0;fontFamily=Kahroba RG;fontSize=13;" parent="1" source="F_yC6FuZW9_ntXyTirgm-28" target="F_yC6FuZW9_ntXyTirgm-22" edge="1">
          <mxGeometry relative="1" as="geometry">
            <mxPoint x="420" y="270" as="sourcePoint" />
            <mxPoint x="580" y="270" as="targetPoint" />
          </mxGeometry>
        </mxCell>
        <mxCell id="F_yC6FuZW9_ntXyTirgm-38" value="gender" style="ellipse;whiteSpace=wrap;html=1;align=center;fontFamily=Kahroba RG;fontSize=13;" parent="1" vertex="1">
          <mxGeometry x="250" y="620" width="100" height="40" as="geometry" />
        </mxCell>
        <mxCell id="F_yC6FuZW9_ntXyTirgm-39" value="&lt;span&gt;social_security_number&lt;/span&gt;" style="ellipse;whiteSpace=wrap;html=1;align=center;fontStyle=4;fontFamily=Kahroba RG;fontSize=13;" parent="1" vertex="1">
          <mxGeometry x="10" y="500" width="180" height="40" as="geometry" />
        </mxCell>
        <mxCell id="F_yC6FuZW9_ntXyTirgm-40" value="&lt;span&gt;discharge_date&lt;/span&gt;" style="ellipse;whiteSpace=wrap;html=1;align=center;fontFamily=Kahroba RG;fontSize=13;" parent="1" vertex="1">
          <mxGeometry x="60" y="680" width="100" height="40" as="geometry" />
        </mxCell>
        <mxCell id="F_yC6FuZW9_ntXyTirgm-41" value="&lt;span&gt;first_name&lt;/span&gt;" style="ellipse;whiteSpace=wrap;html=1;align=center;fontFamily=Kahroba RG;fontSize=13;" parent="1" vertex="1">
          <mxGeometry x="310" y="490" width="100" height="40" as="geometry" />
        </mxCell>
        <mxCell id="F_yC6FuZW9_ntXyTirgm-42" value="&lt;span&gt;last_name&amp;nbsp;&lt;/span&gt;" style="ellipse;whiteSpace=wrap;html=1;align=center;fontFamily=Kahroba RG;fontSize=13;" parent="1" vertex="1">
          <mxGeometry x="230" y="450" width="100" height="40" as="geometry" />
        </mxCell>
        <mxCell id="F_yC6FuZW9_ntXyTirgm-46" value="name" style="ellipse;whiteSpace=wrap;html=1;align=center;fontFamily=Kahroba RG;fontSize=13;" parent="1" vertex="1">
          <mxGeometry x="600" y="120" width="100" height="40" as="geometry" />
        </mxCell>
        <mxCell id="F_yC6FuZW9_ntXyTirgm-49" value="&lt;span&gt;admission_date&lt;/span&gt;" style="ellipse;whiteSpace=wrap;html=1;align=center;fontFamily=Kahroba RG;fontSize=13;" parent="1" vertex="1">
          <mxGeometry x="40" y="560" width="100" height="40" as="geometry" />
        </mxCell>
        <mxCell id="F_yC6FuZW9_ntXyTirgm-53" value="&lt;span&gt;&lt;span&gt;INPATIENT&lt;/span&gt;&lt;/span&gt;" style="shape=ext;margin=3;double=1;whiteSpace=wrap;html=1;align=center;fontFamily=Kahroba RG;fontSize=13;fontStyle=0" parent="1" vertex="1">
          <mxGeometry x="50" y="620" width="100" height="40" as="geometry" />
        </mxCell>
        <mxCell id="F_yC6FuZW9_ntXyTirgm-56" value="" style="endArrow=none;html=1;rounded=0;entryX=0.5;entryY=1;entryDx=0;entryDy=0;fontFamily=Kahroba RG;fontSize=13;" parent="1" target="F_yC6FuZW9_ntXyTirgm-5" edge="1">
          <mxGeometry width="50" height="50" relative="1" as="geometry">
            <mxPoint x="210" y="620" as="sourcePoint" />
            <mxPoint x="260" y="620" as="targetPoint" />
          </mxGeometry>
        </mxCell>
        <mxCell id="F_yC6FuZW9_ntXyTirgm-57" value="d" style="ellipse;whiteSpace=wrap;html=1;align=center;fontFamily=Kahroba RG;fontSize=13;" parent="1" vertex="1">
          <mxGeometry x="190" y="620" width="40" height="40" as="geometry" />
        </mxCell>
        <mxCell id="F_yC6FuZW9_ntXyTirgm-59" value="" style="endArrow=none;html=1;rounded=0;exitX=1;exitY=0.5;exitDx=0;exitDy=0;entryX=0;entryY=0.5;entryDx=0;entryDy=0;fontFamily=Kahroba RG;fontSize=13;" parent="1" source="F_yC6FuZW9_ntXyTirgm-53" target="F_yC6FuZW9_ntXyTirgm-57" edge="1">
          <mxGeometry relative="1" as="geometry">
            <mxPoint x="160" y="640" as="sourcePoint" />
            <mxPoint x="320" y="640" as="targetPoint" />
          </mxGeometry>
        </mxCell>
        <mxCell id="F_yC6FuZW9_ntXyTirgm-60" value="" style="endArrow=none;html=1;rounded=0;curved=1;fontFamily=Kahroba RG;fontSize=13;" parent="1" edge="1">
          <mxGeometry width="50" height="50" relative="1" as="geometry">
            <mxPoint x="180" y="650" as="sourcePoint" />
            <mxPoint x="180" y="630" as="targetPoint" />
            <Array as="points">
              <mxPoint x="170" y="640" />
            </Array>
          </mxGeometry>
        </mxCell>
        <mxCell id="F_yC6FuZW9_ntXyTirgm-61" value="admission" style="shape=rhombus;perimeter=rhombusPerimeter;whiteSpace=wrap;html=1;align=center;fontFamily=Kahroba RG;fontSize=13;" parent="1" vertex="1">
          <mxGeometry x="150" y="300" width="120" height="60" as="geometry" />
        </mxCell>
        <mxCell id="F_yC6FuZW9_ntXyTirgm-62" value="" style="endArrow=none;html=1;rounded=0;exitX=0.5;exitY=1;exitDx=0;exitDy=0;entryX=0.5;entryY=0;entryDx=0;entryDy=0;fontFamily=Kahroba RG;fontSize=13;" parent="1" source="F_yC6FuZW9_ntXyTirgm-1" target="F_yC6FuZW9_ntXyTirgm-61" edge="1">
          <mxGeometry relative="1" as="geometry">
            <mxPoint x="230" y="430" as="sourcePoint" />
            <mxPoint x="390" y="430" as="targetPoint" />
          </mxGeometry>
        </mxCell>
        <mxCell id="F_yC6FuZW9_ntXyTirgm-63" value="N" style="resizable=0;html=1;whiteSpace=wrap;align=right;verticalAlign=bottom;fontFamily=Kahroba RG;fontSize=13;" parent="F_yC6FuZW9_ntXyTirgm-62" connectable="0" vertex="1">
          <mxGeometry x="1" relative="1" as="geometry">
            <mxPoint x="-10" as="offset" />
          </mxGeometry>
        </mxCell>
        <mxCell id="F_yC6FuZW9_ntXyTirgm-64" value="" style="endArrow=none;html=1;rounded=0;exitX=0.5;exitY=0;exitDx=0;exitDy=0;entryX=0.5;entryY=1;entryDx=0;entryDy=0;fontFamily=Kahroba RG;fontSize=13;" parent="1" source="F_yC6FuZW9_ntXyTirgm-5" target="F_yC6FuZW9_ntXyTirgm-61" edge="1">
          <mxGeometry relative="1" as="geometry">
            <mxPoint x="220" y="250" as="sourcePoint" />
            <mxPoint x="220" y="310" as="targetPoint" />
          </mxGeometry>
        </mxCell>
        <mxCell id="F_yC6FuZW9_ntXyTirgm-65" value="N" style="resizable=0;html=1;whiteSpace=wrap;align=right;verticalAlign=bottom;fontFamily=Kahroba RG;fontSize=13;" parent="F_yC6FuZW9_ntXyTirgm-64" connectable="0" vertex="1">
          <mxGeometry x="1" relative="1" as="geometry">
            <mxPoint x="-10" y="20" as="offset" />
          </mxGeometry>
        </mxCell>
        <mxCell id="F_yC6FuZW9_ntXyTirgm-66" value="" style="endArrow=none;html=1;rounded=0;exitX=0.735;exitY=0.942;exitDx=0;exitDy=0;exitPerimeter=0;entryX=0;entryY=0.25;entryDx=0;entryDy=0;fontFamily=Kahroba RG;fontSize=13;" parent="1" source="F_yC6FuZW9_ntXyTirgm-39" target="F_yC6FuZW9_ntXyTirgm-5" edge="1">
          <mxGeometry relative="1" as="geometry">
            <mxPoint x="150" y="510" as="sourcePoint" />
            <mxPoint x="310" y="510" as="targetPoint" />
          </mxGeometry>
        </mxCell>
        <mxCell id="F_yC6FuZW9_ntXyTirgm-67" value="" style="endArrow=none;html=1;rounded=0;exitX=0.5;exitY=1;exitDx=0;exitDy=0;entryX=0.5;entryY=0;entryDx=0;entryDy=0;fontFamily=Kahroba RG;fontSize=13;" parent="1" source="F_yC6FuZW9_ntXyTirgm-49" target="F_yC6FuZW9_ntXyTirgm-53" edge="1">
          <mxGeometry relative="1" as="geometry">
            <mxPoint x="152" y="548" as="sourcePoint" />
            <mxPoint x="170" y="560" as="targetPoint" />
          </mxGeometry>
        </mxCell>
        <mxCell id="F_yC6FuZW9_ntXyTirgm-68" value="" style="endArrow=none;html=1;rounded=0;exitX=0;exitY=1;exitDx=0;exitDy=0;entryX=0.75;entryY=0;entryDx=0;entryDy=0;fontFamily=Kahroba RG;fontSize=13;" parent="1" source="F_yC6FuZW9_ntXyTirgm-42" target="F_yC6FuZW9_ntXyTirgm-5" edge="1">
          <mxGeometry relative="1" as="geometry">
            <mxPoint x="150" y="590" as="sourcePoint" />
            <mxPoint x="170" y="580" as="targetPoint" />
          </mxGeometry>
        </mxCell>
        <mxCell id="F_yC6FuZW9_ntXyTirgm-69" value="" style="endArrow=none;html=1;rounded=0;exitX=0;exitY=0.5;exitDx=0;exitDy=0;entryX=1;entryY=0;entryDx=0;entryDy=0;fontFamily=Kahroba RG;fontSize=13;" parent="1" source="F_yC6FuZW9_ntXyTirgm-41" target="F_yC6FuZW9_ntXyTirgm-5" edge="1">
          <mxGeometry relative="1" as="geometry">
            <mxPoint x="285" y="534" as="sourcePoint" />
            <mxPoint x="245" y="550" as="targetPoint" />
          </mxGeometry>
        </mxCell>
        <mxCell id="F_yC6FuZW9_ntXyTirgm-70" value="" style="endArrow=none;html=1;rounded=0;exitX=0;exitY=0;exitDx=0;exitDy=0;entryX=1;entryY=1;entryDx=0;entryDy=0;fontFamily=Kahroba RG;fontSize=13;" parent="1" source="F_yC6FuZW9_ntXyTirgm-38" target="F_yC6FuZW9_ntXyTirgm-5" edge="1">
          <mxGeometry relative="1" as="geometry">
            <mxPoint x="300" y="570" as="sourcePoint" />
            <mxPoint x="270" y="570" as="targetPoint" />
          </mxGeometry>
        </mxCell>
        <mxCell id="F_yC6FuZW9_ntXyTirgm-71" value="" style="endArrow=none;html=1;rounded=0;exitX=0.5;exitY=1;exitDx=0;exitDy=0;entryX=0.5;entryY=0;entryDx=0;entryDy=0;fontFamily=Kahroba RG;fontSize=13;" parent="1" source="F_yC6FuZW9_ntXyTirgm-53" target="F_yC6FuZW9_ntXyTirgm-40" edge="1">
          <mxGeometry relative="1" as="geometry">
            <mxPoint x="150" y="640" as="sourcePoint" />
            <mxPoint x="310" y="640" as="targetPoint" />
          </mxGeometry>
        </mxCell>
        <mxCell id="F_yC6FuZW9_ntXyTirgm-72" value="Test_Result" style="shape=ext;margin=3;double=1;whiteSpace=wrap;html=1;align=center;fontFamily=Kahroba RG;fontSize=13;" parent="1" vertex="1">
          <mxGeometry x="470" y="540" width="100" height="40" as="geometry" />
        </mxCell>
        <mxCell id="F_yC6FuZW9_ntXyTirgm-73" value="" style="shape=link;html=1;rounded=0;exitX=0;exitY=0.5;exitDx=0;exitDy=0;entryX=1;entryY=0.5;entryDx=0;entryDy=0;fontFamily=Kahroba RG;fontSize=13;" parent="1" source="F_yC6FuZW9_ntXyTirgm-72" target="F_yC6FuZW9_ntXyTirgm-75" edge="1">
          <mxGeometry relative="1" as="geometry">
            <mxPoint x="330" y="490" as="sourcePoint" />
            <mxPoint x="320" y="560" as="targetPoint" />
          </mxGeometry>
        </mxCell>
        <mxCell id="F_yC6FuZW9_ntXyTirgm-74" value="N" style="resizable=0;html=1;whiteSpace=wrap;align=right;verticalAlign=bottom;fontFamily=Kahroba RG;fontSize=13;" parent="F_yC6FuZW9_ntXyTirgm-73" connectable="0" vertex="1">
          <mxGeometry x="1" relative="1" as="geometry" />
        </mxCell>
        <mxCell id="F_yC6FuZW9_ntXyTirgm-75" value="has" style="shape=rhombus;double=1;perimeter=rhombusPerimeter;whiteSpace=wrap;html=1;align=center;fontFamily=Kahroba RG;fontSize=13;" parent="1" vertex="1">
          <mxGeometry x="320" y="530" width="120" height="60" as="geometry" />
        </mxCell>
        <mxCell id="F_yC6FuZW9_ntXyTirgm-76" value="" style="endArrow=none;html=1;rounded=0;exitX=1;exitY=0.5;exitDx=0;exitDy=0;entryX=0;entryY=0.5;entryDx=0;entryDy=0;fontFamily=Kahroba RG;fontSize=13;" parent="1" source="F_yC6FuZW9_ntXyTirgm-5" target="F_yC6FuZW9_ntXyTirgm-75" edge="1">
          <mxGeometry relative="1" as="geometry">
            <mxPoint x="330" y="490" as="sourcePoint" />
            <mxPoint x="490" y="490" as="targetPoint" />
          </mxGeometry>
        </mxCell>
        <mxCell id="F_yC6FuZW9_ntXyTirgm-77" value="1" style="resizable=0;html=1;whiteSpace=wrap;align=right;verticalAlign=bottom;fontFamily=Kahroba RG;fontSize=13;" parent="F_yC6FuZW9_ntXyTirgm-76" connectable="0" vertex="1">
          <mxGeometry x="1" relative="1" as="geometry" />
        </mxCell>
        <mxCell id="F_yC6FuZW9_ntXyTirgm-80" value="" style="shape=link;html=1;rounded=0;exitX=0.5;exitY=0;exitDx=0;exitDy=0;entryX=0.5;entryY=1;entryDx=0;entryDy=0;fontFamily=Kahroba RG;fontSize=13;" parent="1" source="F_yC6FuZW9_ntXyTirgm-72" target="F_yC6FuZW9_ntXyTirgm-82" edge="1">
          <mxGeometry relative="1" as="geometry">
            <mxPoint x="330" y="490" as="sourcePoint" />
            <mxPoint x="480" y="510" as="targetPoint" />
          </mxGeometry>
        </mxCell>
        <mxCell id="F_yC6FuZW9_ntXyTirgm-81" value="N" style="resizable=0;html=1;whiteSpace=wrap;align=right;verticalAlign=bottom;fontFamily=Kahroba RG;fontSize=13;" parent="F_yC6FuZW9_ntXyTirgm-80" connectable="0" vertex="1">
          <mxGeometry x="1" relative="1" as="geometry">
            <mxPoint x="-20" y="10" as="offset" />
          </mxGeometry>
        </mxCell>
        <mxCell id="F_yC6FuZW9_ntXyTirgm-82" value="is_about" style="shape=rhombus;double=1;perimeter=rhombusPerimeter;whiteSpace=wrap;html=1;align=center;fontFamily=Kahroba RG;fontSize=13;" parent="1" vertex="1">
          <mxGeometry x="460" y="440" width="120" height="60" as="geometry" />
        </mxCell>
        <mxCell id="F_yC6FuZW9_ntXyTirgm-83" value="" style="endArrow=none;html=1;rounded=0;exitX=0.5;exitY=1;exitDx=0;exitDy=0;entryX=0.5;entryY=0;entryDx=0;entryDy=0;fontFamily=Kahroba RG;fontSize=13;" parent="1" source="F_yC6FuZW9_ntXyTirgm-3" target="F_yC6FuZW9_ntXyTirgm-82" edge="1">
          <mxGeometry relative="1" as="geometry">
            <mxPoint x="330" y="490" as="sourcePoint" />
            <mxPoint x="490" y="490" as="targetPoint" />
          </mxGeometry>
        </mxCell>
        <mxCell id="F_yC6FuZW9_ntXyTirgm-84" value="1" style="resizable=0;html=1;whiteSpace=wrap;align=right;verticalAlign=bottom;fontFamily=Kahroba RG;fontSize=13;" parent="F_yC6FuZW9_ntXyTirgm-83" connectable="0" vertex="1">
          <mxGeometry x="1" relative="1" as="geometry" />
        </mxCell>
        <mxCell id="F_yC6FuZW9_ntXyTirgm-85" value="&lt;span&gt;code&lt;/span&gt;" style="ellipse;whiteSpace=wrap;html=1;align=center;fontStyle=4;fontFamily=Kahroba RG;fontSize=13;" parent="1" vertex="1">
          <mxGeometry x="590" y="540" width="100" height="40" as="geometry" />
        </mxCell>
        <mxCell id="F_yC6FuZW9_ntXyTirgm-86" value="&lt;span&gt;description&lt;/span&gt;" style="ellipse;whiteSpace=wrap;html=1;align=center;fontFamily=Kahroba RG;fontSize=13;" parent="1" vertex="1">
          <mxGeometry x="360" y="300" width="100" height="40" as="geometry" />
        </mxCell>
        <mxCell id="F_yC6FuZW9_ntXyTirgm-87" value="&lt;span&gt;cost&lt;/span&gt;" style="ellipse;whiteSpace=wrap;html=1;align=center;fontFamily=Kahroba RG;fontSize=13;" parent="1" vertex="1">
          <mxGeometry x="470" y="280" width="100" height="40" as="geometry" />
        </mxCell>
        <mxCell id="F_yC6FuZW9_ntXyTirgm-88" value="&lt;span&gt;result&lt;/span&gt;" style="ellipse;whiteSpace=wrap;html=1;align=center;fontFamily=Kahroba RG;fontSize=13;" parent="1" vertex="1">
          <mxGeometry x="550" y="600" width="100" height="40" as="geometry" />
        </mxCell>
        <mxCell id="F_yC6FuZW9_ntXyTirgm-89" value="&lt;span&gt;test_id&lt;/span&gt;" style="ellipse;whiteSpace=wrap;html=1;align=center;fontStyle=4;fontFamily=Kahroba RG;fontSize=13;" parent="1" vertex="1">
          <mxGeometry x="350" y="360" width="100" height="40" as="geometry" />
        </mxCell>
        <mxCell id="F_yC6FuZW9_ntXyTirgm-90" value="" style="endArrow=none;html=1;rounded=0;exitX=1;exitY=0.5;exitDx=0;exitDy=0;entryX=0;entryY=0.5;entryDx=0;entryDy=0;fontFamily=Kahroba RG;fontSize=13;" parent="1" source="F_yC6FuZW9_ntXyTirgm-72" target="F_yC6FuZW9_ntXyTirgm-85" edge="1">
          <mxGeometry relative="1" as="geometry">
            <mxPoint x="420" y="580" as="sourcePoint" />
            <mxPoint x="580" y="580" as="targetPoint" />
          </mxGeometry>
        </mxCell>
        <mxCell id="F_yC6FuZW9_ntXyTirgm-91" value="" style="endArrow=none;html=1;rounded=0;exitX=0;exitY=0;exitDx=0;exitDy=0;entryX=0.75;entryY=1;entryDx=0;entryDy=0;fontFamily=Kahroba RG;fontSize=13;" parent="1" source="F_yC6FuZW9_ntXyTirgm-88" target="F_yC6FuZW9_ntXyTirgm-72" edge="1">
          <mxGeometry relative="1" as="geometry">
            <mxPoint x="420" y="580" as="sourcePoint" />
            <mxPoint x="580" y="580" as="targetPoint" />
          </mxGeometry>
        </mxCell>
        <mxCell id="F_yC6FuZW9_ntXyTirgm-92" value="" style="endArrow=none;html=1;rounded=0;exitX=1;exitY=0.5;exitDx=0;exitDy=0;entryX=0;entryY=0.5;entryDx=0;entryDy=0;fontFamily=Kahroba RG;fontSize=13;" parent="1" source="F_yC6FuZW9_ntXyTirgm-89" target="F_yC6FuZW9_ntXyTirgm-3" edge="1">
          <mxGeometry relative="1" as="geometry">
            <mxPoint x="420" y="450" as="sourcePoint" />
            <mxPoint x="580" y="450" as="targetPoint" />
          </mxGeometry>
        </mxCell>
        <mxCell id="F_yC6FuZW9_ntXyTirgm-93" value="" style="endArrow=none;html=1;rounded=0;exitX=1;exitY=1;exitDx=0;exitDy=0;entryX=0.139;entryY=0.017;entryDx=0;entryDy=0;entryPerimeter=0;fontFamily=Kahroba RG;fontSize=13;" parent="1" source="F_yC6FuZW9_ntXyTirgm-86" target="F_yC6FuZW9_ntXyTirgm-3" edge="1">
          <mxGeometry relative="1" as="geometry">
            <mxPoint x="460" y="390" as="sourcePoint" />
            <mxPoint x="480" y="390" as="targetPoint" />
          </mxGeometry>
        </mxCell>
        <mxCell id="F_yC6FuZW9_ntXyTirgm-94" value="" style="endArrow=none;html=1;rounded=0;exitX=0.5;exitY=1;exitDx=0;exitDy=0;entryX=0.5;entryY=0;entryDx=0;entryDy=0;fontFamily=Kahroba RG;fontSize=13;" parent="1" source="F_yC6FuZW9_ntXyTirgm-87" target="F_yC6FuZW9_ntXyTirgm-3" edge="1">
          <mxGeometry relative="1" as="geometry">
            <mxPoint x="455" y="344" as="sourcePoint" />
            <mxPoint x="494" y="371" as="targetPoint" />
          </mxGeometry>
        </mxCell>
        <mxCell id="F_yC6FuZW9_ntXyTirgm-95" value="" style="endArrow=none;html=1;rounded=0;exitX=0.977;exitY=0.364;exitDx=0;exitDy=0;exitPerimeter=0;entryX=0;entryY=0.5;entryDx=0;entryDy=0;fontFamily=Kahroba RG;fontSize=13;" parent="1" source="F_yC6FuZW9_ntXyTirgm-8" target="F_yC6FuZW9_ntXyTirgm-1" edge="1">
          <mxGeometry relative="1" as="geometry">
            <mxPoint x="200" y="250" as="sourcePoint" />
            <mxPoint x="360" y="250" as="targetPoint" />
          </mxGeometry>
        </mxCell>
        <mxCell id="F_yC6FuZW9_ntXyTirgm-96" value="" style="endArrow=none;html=1;rounded=0;exitX=1;exitY=1;exitDx=0;exitDy=0;entryX=0;entryY=0.25;entryDx=0;entryDy=0;fontFamily=Kahroba RG;fontSize=13;" parent="1" source="F_yC6FuZW9_ntXyTirgm-21" target="F_yC6FuZW9_ntXyTirgm-1" edge="1">
          <mxGeometry relative="1" as="geometry">
            <mxPoint x="128" y="235" as="sourcePoint" />
            <mxPoint x="170" y="230" as="targetPoint" />
          </mxGeometry>
        </mxCell>
        <mxCell id="F_yC6FuZW9_ntXyTirgm-97" value="" style="endArrow=none;html=1;rounded=0;exitX=0.594;exitY=1.014;exitDx=0;exitDy=0;entryX=0.5;entryY=0;entryDx=0;entryDy=0;exitPerimeter=0;fontFamily=Kahroba RG;fontSize=13;" parent="1" source="F_yC6FuZW9_ntXyTirgm-9" target="F_yC6FuZW9_ntXyTirgm-1" edge="1">
          <mxGeometry relative="1" as="geometry">
            <mxPoint x="125" y="204" as="sourcePoint" />
            <mxPoint x="170" y="220" as="targetPoint" />
          </mxGeometry>
        </mxCell>
      </root>
    </mxGraphModel>
  </diagram>
</mxfile>
